<mxfile host="app.diagrams.net" modified="2023-06-02T16:40:14.578Z" agent="Mozilla/5.0 (Windows NT 10.0; Win64; x64) AppleWebKit/537.36 (KHTML, like Gecko) Chrome/113.0.0.0 Safari/537.36" etag="1cZ7NSzYoV4VNfG0fynt" version="21.3.7" type="github">
  <diagram name="第 1 页" id="VRpfTwcp6QSaKo6oLPuV">
    <mxGraphModel dx="987" dy="511" grid="1" gridSize="10" guides="1" tooltips="1" connect="1" arrows="1" fold="1" page="1" pageScale="1" pageWidth="827" pageHeight="1169" math="0" shadow="0">
      <root>
        <mxCell id="0" />
        <mxCell id="1" parent="0" />
        <mxCell id="IIs5mh-bs7pIUyUla5EY-1" value="用户" style="shape=umlActor;verticalLabelPosition=bottom;verticalAlign=top;html=1;outlineConnect=0;" vertex="1" parent="1">
          <mxGeometry x="200" y="80" width="30" height="60" as="geometry" />
        </mxCell>
        <mxCell id="IIs5mh-bs7pIUyUla5EY-2" value="" style="html=1;points=[];perimeter=orthogonalPerimeter;outlineConnect=0;targetShapes=umlLifeline;portConstraint=eastwest;newEdgeStyle={&quot;edgeStyle&quot;:&quot;elbowEdgeStyle&quot;,&quot;elbow&quot;:&quot;vertical&quot;,&quot;curved&quot;:0,&quot;rounded&quot;:0};" vertex="1" parent="1">
          <mxGeometry x="210" y="180" width="10" height="280" as="geometry" />
        </mxCell>
        <mxCell id="IIs5mh-bs7pIUyUla5EY-3" value="前台客户端" style="html=1;whiteSpace=wrap;" vertex="1" parent="1">
          <mxGeometry x="320" y="110" width="110" height="50" as="geometry" />
        </mxCell>
        <mxCell id="IIs5mh-bs7pIUyUla5EY-4" value="菜品列表" style="html=1;whiteSpace=wrap;" vertex="1" parent="1">
          <mxGeometry x="490" y="110" width="110" height="50" as="geometry" />
        </mxCell>
        <mxCell id="IIs5mh-bs7pIUyUla5EY-5" value="数据库" style="html=1;whiteSpace=wrap;" vertex="1" parent="1">
          <mxGeometry x="660" y="110" width="110" height="50" as="geometry" />
        </mxCell>
        <mxCell id="IIs5mh-bs7pIUyUla5EY-6" value="" style="html=1;points=[];perimeter=orthogonalPerimeter;outlineConnect=0;targetShapes=umlLifeline;portConstraint=eastwest;newEdgeStyle={&quot;edgeStyle&quot;:&quot;elbowEdgeStyle&quot;,&quot;elbow&quot;:&quot;vertical&quot;,&quot;curved&quot;:0,&quot;rounded&quot;:0};" vertex="1" parent="1">
          <mxGeometry x="370" y="180" width="10" height="90" as="geometry" />
        </mxCell>
        <mxCell id="IIs5mh-bs7pIUyUla5EY-7" value="" style="endArrow=block;endFill=1;html=1;edgeStyle=orthogonalEdgeStyle;align=left;verticalAlign=top;rounded=0;" edge="1" parent="1" source="IIs5mh-bs7pIUyUla5EY-2" target="IIs5mh-bs7pIUyUla5EY-6">
          <mxGeometry x="-1" relative="1" as="geometry">
            <mxPoint x="220" y="190" as="sourcePoint" />
            <mxPoint x="380" y="190" as="targetPoint" />
            <Array as="points">
              <mxPoint x="340" y="180" />
              <mxPoint x="340" y="180" />
            </Array>
          </mxGeometry>
        </mxCell>
        <mxCell id="IIs5mh-bs7pIUyUla5EY-8" value="1.通过账号、密码登录()" style="edgeLabel;resizable=0;html=1;align=left;verticalAlign=bottom;" connectable="0" vertex="1" parent="IIs5mh-bs7pIUyUla5EY-7">
          <mxGeometry x="-1" relative="1" as="geometry" />
        </mxCell>
        <mxCell id="IIs5mh-bs7pIUyUla5EY-9" value="" style="endArrow=none;dashed=1;html=1;rounded=0;entryX=0.5;entryY=1;entryDx=0;entryDy=0;" edge="1" parent="1" source="IIs5mh-bs7pIUyUla5EY-6" target="IIs5mh-bs7pIUyUla5EY-3">
          <mxGeometry width="50" height="50" relative="1" as="geometry">
            <mxPoint x="390" y="290" as="sourcePoint" />
            <mxPoint x="440" y="240" as="targetPoint" />
          </mxGeometry>
        </mxCell>
        <mxCell id="IIs5mh-bs7pIUyUla5EY-10" value="" style="html=1;points=[];perimeter=orthogonalPerimeter;outlineConnect=0;targetShapes=umlLifeline;portConstraint=eastwest;newEdgeStyle={&quot;edgeStyle&quot;:&quot;elbowEdgeStyle&quot;,&quot;elbow&quot;:&quot;vertical&quot;,&quot;curved&quot;:0,&quot;rounded&quot;:0};" vertex="1" parent="1">
          <mxGeometry x="540" y="270" width="10" height="70" as="geometry" />
        </mxCell>
        <mxCell id="IIs5mh-bs7pIUyUla5EY-11" value="" style="endArrow=none;dashed=1;html=1;rounded=0;exitX=0.5;exitY=1;exitDx=0;exitDy=0;" edge="1" parent="1" source="IIs5mh-bs7pIUyUla5EY-4" target="IIs5mh-bs7pIUyUla5EY-10">
          <mxGeometry width="50" height="50" relative="1" as="geometry">
            <mxPoint x="385" y="190" as="sourcePoint" />
            <mxPoint x="385" y="170" as="targetPoint" />
          </mxGeometry>
        </mxCell>
        <mxCell id="IIs5mh-bs7pIUyUla5EY-12" value="" style="curved=1;endArrow=classic;html=1;rounded=0;dashed=1;" edge="1" parent="1" source="IIs5mh-bs7pIUyUla5EY-6" target="IIs5mh-bs7pIUyUla5EY-6">
          <mxGeometry width="50" height="50" relative="1" as="geometry">
            <mxPoint x="390" y="400" as="sourcePoint" />
            <mxPoint x="390" y="230" as="targetPoint" />
            <Array as="points">
              <mxPoint x="420" y="180" />
              <mxPoint x="470" y="200" />
              <mxPoint x="430" y="240" />
            </Array>
          </mxGeometry>
        </mxCell>
        <mxCell id="IIs5mh-bs7pIUyUla5EY-13" value="2.核验用户权限()" style="text;html=1;strokeColor=none;fillColor=none;align=center;verticalAlign=middle;whiteSpace=wrap;rounded=0;" vertex="1" parent="1">
          <mxGeometry x="450" y="180" width="100" height="20" as="geometry" />
        </mxCell>
        <mxCell id="IIs5mh-bs7pIUyUla5EY-14" value="" style="endArrow=block;endFill=1;html=1;edgeStyle=orthogonalEdgeStyle;align=left;verticalAlign=top;rounded=0;" edge="1" parent="1" source="IIs5mh-bs7pIUyUla5EY-6" target="IIs5mh-bs7pIUyUla5EY-10">
          <mxGeometry x="-1" relative="1" as="geometry">
            <mxPoint x="390" y="299.5" as="sourcePoint" />
            <mxPoint x="540" y="299.5" as="targetPoint" />
            <Array as="points">
              <mxPoint x="430" y="270" />
              <mxPoint x="430" y="270" />
            </Array>
          </mxGeometry>
        </mxCell>
        <mxCell id="IIs5mh-bs7pIUyUla5EY-15" value="3.进入菜品列表页面" style="edgeLabel;resizable=0;html=1;align=left;verticalAlign=bottom;" connectable="0" vertex="1" parent="IIs5mh-bs7pIUyUla5EY-14">
          <mxGeometry x="-1" relative="1" as="geometry">
            <mxPoint x="-5" y="-4" as="offset" />
          </mxGeometry>
        </mxCell>
        <mxCell id="IIs5mh-bs7pIUyUla5EY-16" value="" style="html=1;points=[];perimeter=orthogonalPerimeter;outlineConnect=0;targetShapes=umlLifeline;portConstraint=eastwest;newEdgeStyle={&quot;edgeStyle&quot;:&quot;elbowEdgeStyle&quot;,&quot;elbow&quot;:&quot;vertical&quot;,&quot;curved&quot;:0,&quot;rounded&quot;:0};" vertex="1" parent="1">
          <mxGeometry x="710" y="330" width="10" height="50" as="geometry" />
        </mxCell>
        <mxCell id="IIs5mh-bs7pIUyUla5EY-17" value="" style="endArrow=none;dashed=1;html=1;rounded=0;exitX=0.5;exitY=1;exitDx=0;exitDy=0;" edge="1" parent="1" source="IIs5mh-bs7pIUyUla5EY-5" target="IIs5mh-bs7pIUyUla5EY-16">
          <mxGeometry width="50" height="50" relative="1" as="geometry">
            <mxPoint x="555" y="170" as="sourcePoint" />
            <mxPoint x="555" y="280" as="targetPoint" />
          </mxGeometry>
        </mxCell>
        <mxCell id="IIs5mh-bs7pIUyUla5EY-18" value="" style="endArrow=block;endFill=1;html=1;edgeStyle=orthogonalEdgeStyle;align=left;verticalAlign=top;rounded=0;" edge="1" parent="1" source="IIs5mh-bs7pIUyUla5EY-10" target="IIs5mh-bs7pIUyUla5EY-16">
          <mxGeometry x="-1" relative="1" as="geometry">
            <mxPoint x="560" y="319.5" as="sourcePoint" />
            <mxPoint x="720" y="319.5" as="targetPoint" />
            <Array as="points">
              <mxPoint x="690" y="340" />
              <mxPoint x="690" y="340" />
            </Array>
          </mxGeometry>
        </mxCell>
        <mxCell id="IIs5mh-bs7pIUyUla5EY-19" value="5.写入数据库" style="edgeLabel;resizable=0;html=1;align=left;verticalAlign=bottom;" connectable="0" vertex="1" parent="IIs5mh-bs7pIUyUla5EY-18">
          <mxGeometry x="-1" relative="1" as="geometry">
            <mxPoint x="-5" as="offset" />
          </mxGeometry>
        </mxCell>
        <mxCell id="IIs5mh-bs7pIUyUla5EY-20" value="" style="html=1;points=[];perimeter=orthogonalPerimeter;outlineConnect=0;targetShapes=umlLifeline;portConstraint=eastwest;newEdgeStyle={&quot;edgeStyle&quot;:&quot;elbowEdgeStyle&quot;,&quot;elbow&quot;:&quot;vertical&quot;,&quot;curved&quot;:0,&quot;rounded&quot;:0};" vertex="1" parent="1">
          <mxGeometry x="370" y="380" width="10" height="50" as="geometry" />
        </mxCell>
        <mxCell id="IIs5mh-bs7pIUyUla5EY-23" value="" style="endArrow=none;dashed=1;html=1;rounded=0;" edge="1" parent="1" source="IIs5mh-bs7pIUyUla5EY-6" target="IIs5mh-bs7pIUyUla5EY-20">
          <mxGeometry width="50" height="50" relative="1" as="geometry">
            <mxPoint x="555" y="170" as="sourcePoint" />
            <mxPoint x="555" y="280" as="targetPoint" />
          </mxGeometry>
        </mxCell>
        <mxCell id="IIs5mh-bs7pIUyUla5EY-24" value="" style="endArrow=none;dashed=1;html=1;rounded=0;" edge="1" parent="1">
          <mxGeometry width="50" height="50" relative="1" as="geometry">
            <mxPoint x="545" y="530" as="sourcePoint" />
            <mxPoint x="545" y="340" as="targetPoint" />
            <Array as="points">
              <mxPoint x="545" y="400" />
            </Array>
          </mxGeometry>
        </mxCell>
        <mxCell id="IIs5mh-bs7pIUyUla5EY-25" value="" style="endArrow=none;dashed=1;html=1;rounded=0;" edge="1" parent="1" target="IIs5mh-bs7pIUyUla5EY-16">
          <mxGeometry width="50" height="50" relative="1" as="geometry">
            <mxPoint x="715" y="530" as="sourcePoint" />
            <mxPoint x="395" y="400" as="targetPoint" />
          </mxGeometry>
        </mxCell>
        <mxCell id="IIs5mh-bs7pIUyUla5EY-26" value="" style="endArrow=none;dashed=1;html=1;rounded=0;" edge="1" parent="1" target="IIs5mh-bs7pIUyUla5EY-20" source="IIs5mh-bs7pIUyUla5EY-36">
          <mxGeometry width="50" height="50" relative="1" as="geometry">
            <mxPoint x="375" y="460" as="sourcePoint" />
            <mxPoint x="405" y="410" as="targetPoint" />
            <Array as="points">
              <mxPoint x="375" y="450" />
            </Array>
          </mxGeometry>
        </mxCell>
        <mxCell id="IIs5mh-bs7pIUyUla5EY-27" value="" style="curved=1;endArrow=classic;html=1;rounded=0;dashed=1;" edge="1" parent="1" source="IIs5mh-bs7pIUyUla5EY-10" target="IIs5mh-bs7pIUyUla5EY-10">
          <mxGeometry width="50" height="50" relative="1" as="geometry">
            <mxPoint x="390" y="190" as="sourcePoint" />
            <mxPoint x="390" y="250" as="targetPoint" />
            <Array as="points">
              <mxPoint x="600" y="270" />
              <mxPoint x="640" y="280" />
              <mxPoint x="630" y="305" />
            </Array>
          </mxGeometry>
        </mxCell>
        <mxCell id="IIs5mh-bs7pIUyUla5EY-28" value="4.添加菜品并下单()" style="text;html=1;strokeColor=none;fillColor=none;align=center;verticalAlign=middle;whiteSpace=wrap;rounded=0;" vertex="1" parent="1">
          <mxGeometry x="580" y="250" width="130" height="30" as="geometry" />
        </mxCell>
        <mxCell id="IIs5mh-bs7pIUyUla5EY-29" value="" style="curved=1;endArrow=classic;html=1;rounded=0;dashed=1;" edge="1" parent="1" source="IIs5mh-bs7pIUyUla5EY-16" target="IIs5mh-bs7pIUyUla5EY-16">
          <mxGeometry width="50" height="50" relative="1" as="geometry">
            <mxPoint x="560" y="280" as="sourcePoint" />
            <mxPoint x="560" y="315" as="targetPoint" />
            <Array as="points">
              <mxPoint x="780" y="330" />
              <mxPoint x="770" y="360" />
            </Array>
          </mxGeometry>
        </mxCell>
        <mxCell id="IIs5mh-bs7pIUyUla5EY-30" value="6.修改数据库" style="edgeLabel;resizable=0;html=1;align=left;verticalAlign=bottom;" connectable="0" vertex="1" parent="1">
          <mxGeometry x="750" y="330" as="geometry" />
        </mxCell>
        <mxCell id="IIs5mh-bs7pIUyUla5EY-31" value="" style="endArrow=block;endFill=1;html=1;edgeStyle=orthogonalEdgeStyle;align=left;verticalAlign=top;rounded=0;" edge="1" parent="1" source="IIs5mh-bs7pIUyUla5EY-2" target="IIs5mh-bs7pIUyUla5EY-20">
          <mxGeometry x="-1" relative="1" as="geometry">
            <mxPoint x="560" y="350" as="sourcePoint" />
            <mxPoint x="720" y="350" as="targetPoint" />
            <Array as="points">
              <mxPoint x="260" y="380" />
              <mxPoint x="260" y="380" />
            </Array>
          </mxGeometry>
        </mxCell>
        <mxCell id="IIs5mh-bs7pIUyUla5EY-32" value="7.查询用户历史订单()" style="edgeLabel;resizable=0;html=1;align=left;verticalAlign=bottom;" connectable="0" vertex="1" parent="IIs5mh-bs7pIUyUla5EY-31">
          <mxGeometry x="-1" relative="1" as="geometry">
            <mxPoint x="-5" as="offset" />
          </mxGeometry>
        </mxCell>
        <mxCell id="IIs5mh-bs7pIUyUla5EY-33" value="" style="html=1;points=[];perimeter=orthogonalPerimeter;outlineConnect=0;targetShapes=umlLifeline;portConstraint=eastwest;newEdgeStyle={&quot;edgeStyle&quot;:&quot;elbowEdgeStyle&quot;,&quot;elbow&quot;:&quot;vertical&quot;,&quot;curved&quot;:0,&quot;rounded&quot;:0};" vertex="1" parent="1">
          <mxGeometry x="710" y="430" width="10" height="50" as="geometry" />
        </mxCell>
        <mxCell id="IIs5mh-bs7pIUyUla5EY-34" value="" style="endArrow=block;endFill=1;html=1;edgeStyle=orthogonalEdgeStyle;align=left;verticalAlign=top;rounded=0;" edge="1" parent="1" source="IIs5mh-bs7pIUyUla5EY-20" target="IIs5mh-bs7pIUyUla5EY-33">
          <mxGeometry x="-1" relative="1" as="geometry">
            <mxPoint x="400" y="410" as="sourcePoint" />
            <mxPoint x="550" y="410" as="targetPoint" />
            <Array as="points">
              <mxPoint x="650" y="430" />
              <mxPoint x="650" y="430" />
            </Array>
          </mxGeometry>
        </mxCell>
        <mxCell id="IIs5mh-bs7pIUyUla5EY-35" value="8.获取用户数据库历史订单数据" style="edgeLabel;resizable=0;html=1;align=left;verticalAlign=bottom;" connectable="0" vertex="1" parent="IIs5mh-bs7pIUyUla5EY-34">
          <mxGeometry x="-1" relative="1" as="geometry">
            <mxPoint x="-5" as="offset" />
          </mxGeometry>
        </mxCell>
        <mxCell id="IIs5mh-bs7pIUyUla5EY-36" value="" style="html=1;points=[];perimeter=orthogonalPerimeter;outlineConnect=0;targetShapes=umlLifeline;portConstraint=eastwest;newEdgeStyle={&quot;edgeStyle&quot;:&quot;elbowEdgeStyle&quot;,&quot;elbow&quot;:&quot;vertical&quot;,&quot;curved&quot;:0,&quot;rounded&quot;:0};" vertex="1" parent="1">
          <mxGeometry x="370" y="480" width="10" height="50" as="geometry" />
        </mxCell>
        <mxCell id="IIs5mh-bs7pIUyUla5EY-39" value="" style="endArrow=block;endFill=1;html=1;edgeStyle=orthogonalEdgeStyle;align=left;verticalAlign=top;rounded=0;" edge="1" parent="1" source="IIs5mh-bs7pIUyUla5EY-33" target="IIs5mh-bs7pIUyUla5EY-36">
          <mxGeometry x="-1" relative="1" as="geometry">
            <mxPoint x="710" y="490" as="sourcePoint" />
            <mxPoint x="730" y="450" as="targetPoint" />
            <Array as="points">
              <mxPoint x="510" y="480" />
              <mxPoint x="510" y="480" />
            </Array>
          </mxGeometry>
        </mxCell>
        <mxCell id="IIs5mh-bs7pIUyUla5EY-40" value="9.返回相应的数据信息" style="edgeLabel;resizable=0;html=1;align=left;verticalAlign=bottom;" connectable="0" vertex="1" parent="IIs5mh-bs7pIUyUla5EY-39">
          <mxGeometry x="-1" relative="1" as="geometry">
            <mxPoint x="-165" y="-10" as="offset" />
          </mxGeometry>
        </mxCell>
        <mxCell id="IIs5mh-bs7pIUyUla5EY-42" value="" style="endArrow=none;dashed=1;html=1;rounded=0;" edge="1" parent="1" target="IIs5mh-bs7pIUyUla5EY-2">
          <mxGeometry width="50" height="50" relative="1" as="geometry">
            <mxPoint x="215" y="530" as="sourcePoint" />
            <mxPoint x="555" y="350" as="targetPoint" />
            <Array as="points">
              <mxPoint x="215" y="500" />
            </Array>
          </mxGeometry>
        </mxCell>
      </root>
    </mxGraphModel>
  </diagram>
</mxfile>
